<svg width="197" height="176" viewBox="0 0 197 176" fill="none" xmlns="http://www.w3.org/2000/svg">
<path d="M109.084 156.75H44.9173L41.709 143.916L44.9173 131.083H109.084L112.292 143.916L109.084 156.75Z" fill="#FBC02D"/>
<path d="M109.084 131.083V156.75L134.751 131.083H109.084Z" fill="#E53935"/>
<g style="mix-blend-mode:overlay" opacity="0.25">
<path style="mix-blend-mode:overlay" opacity="0.25" fill-rule="evenodd" clip-rule="evenodd" d="M158.851 105.317C160.426 105.931 162.222 105.891 163.812 105.126L184.4 95.2197C186.564 94.1787 187.939 91.9892 187.939 89.5871V22.4133C187.939 20.0112 186.564 17.8217 184.4 16.7807L163.812 6.87369C161.726 5.86981 159.284 6.1157 157.453 7.44688C157.191 7.63705 156.942 7.84937 156.708 8.08335L117.295 44.0414L100.127 31.0096C98.5285 29.7964 96.2931 29.8959 94.8088 31.246L89.3025 36.2548C87.4869 37.9064 87.4848 40.7627 89.298 42.4169L104.187 56L89.298 69.5832C87.4848 71.2374 87.4869 74.0937 89.3025 75.7452L94.8088 80.754C96.2931 82.1042 98.5285 82.2036 100.127 80.9905L117.295 67.9586L156.708 103.917C157.332 104.541 158.064 105.01 158.851 105.317ZM162.955 33.2989L133.049 56L162.955 78.7012V33.2989Z" fill="url(#paint0_linear_1406_81)"/>
</g>
<path d="M112.292 63.708H41.709V134.291H112.292V63.708Z" fill="white"/>
<path d="M82.3906 89.1186L85.6246 93.7386L90.7066 90.0426V116.839H96.2506V81.7266H91.6306L82.3906 89.1186Z" fill="#1E88E5"/>
<path d="M73.6081 98.1823C75.6134 96.3407 76.8582 93.7869 76.8582 90.9667C76.8582 85.3618 71.9398 80.8027 65.8953 80.8027C60.7556 80.8027 56.3601 84.0399 55.2116 88.6728L60.5278 90.0235C61.0571 87.8932 63.3126 86.3467 65.8953 86.3467C68.9176 86.3467 71.3783 88.4193 71.3783 90.9667C71.3783 93.5142 68.9176 95.5867 65.8953 95.5867H62.6966V101.131H65.8953C69.3635 101.131 72.2895 103.54 72.2895 106.392C72.2895 109.293 69.5111 111.654 66.0942 111.654C63.0078 111.654 60.3706 109.697 59.9535 107.105L54.541 107.99C55.3816 113.239 60.3481 117.198 66.091 117.198C72.5301 117.198 77.7693 112.35 77.7693 106.392C77.7693 103.11 76.1524 100.165 73.6081 98.1823Z" fill="#1E88E5"/>
<path d="M121.917 134.291L134.751 131.083V66.9163L121.917 63.708L109.084 66.9163V131.083L121.917 134.291Z" fill="#4CAF50"/>
<path d="M109.083 66.9167L112.292 54.0833L109.083 41.25H28.875C23.5588 41.25 19.25 45.5588 19.25 50.875V131.083L32.0833 134.292L44.9167 131.083V66.9167H109.083Z" fill="#1E88E5"/>
<path d="M125.126 41.25H109.084V66.9167H134.751V50.875C134.751 45.5588 130.442 41.25 125.126 41.25Z" fill="#1565C0"/>
<path d="M28.875 156.75H44.9167V131.083H19.25V147.125C19.25 152.441 23.5588 156.75 28.875 156.75Z" fill="#1565C0"/>
<mask id="mask0_1406_81" style="mask-type:alpha" maskUnits="userSpaceOnUse" x="88" y="6" width="100" height="100">
<path fill-rule="evenodd" clip-rule="evenodd" d="M158.912 105.317C160.487 105.931 162.283 105.891 163.872 105.126L184.461 95.2196C186.624 94.1786 188 91.9891 188 89.5871V22.4132C188 20.0112 186.624 17.8217 184.461 16.7807L163.872 6.87369C161.786 5.86981 159.345 6.1157 157.513 7.44689C157.252 7.63705 157.003 7.84937 156.769 8.08335L117.355 44.0414L100.187 31.0095C98.589 29.7964 96.3536 29.8958 94.8693 31.246L89.363 36.2548C87.5474 37.9063 87.5454 40.7626 89.3585 42.4169L104.247 56L89.3585 69.5831C87.5454 71.2373 87.5474 74.0937 89.363 75.7452L94.8693 80.754C96.3536 82.1042 98.589 82.2036 100.187 80.9904L117.355 67.9586L156.769 103.917C157.392 104.541 158.125 105.01 158.912 105.317ZM163.015 33.2988L133.109 56L163.015 78.7011V33.2988Z" fill="white"/>
</mask>
<g mask="url(#mask0_1406_81)">
<path d="M184.462 16.7963L163.857 6.87563C161.472 5.72732 158.622 6.2117 156.75 8.08342L89.2988 69.5833C87.4845 71.2374 87.4866 74.0938 89.3033 75.7453L94.813 80.7541C96.2982 82.1043 98.5349 82.2037 100.134 80.9906L181.361 19.37C184.086 17.3027 188 19.2463 188 22.6668V22.4276C188 20.0266 186.625 17.8379 184.462 16.7963Z" fill="#0065A9"/>
<g filter="url(#filter0_d_1406_81)">
<path d="M184.462 95.2035L163.857 105.124C161.472 106.273 158.622 105.788 156.75 103.916L89.2988 42.4166C87.4845 40.7624 87.4866 37.906 89.3033 36.2545L94.813 31.2457C96.2982 29.8955 98.5349 29.7961 100.134 31.0092L181.361 92.6298C184.086 94.6971 188 92.7535 188 89.3331V89.5723C188 91.9732 186.625 94.1619 184.462 95.2035Z" fill="#007ACC"/>
</g>
<g filter="url(#filter1_d_1406_81)">
<path d="M163.858 105.126C161.472 106.274 158.622 105.789 156.75 103.917C159.056 106.223 163 104.59 163 101.328V10.6722C163 7.41045 159.056 5.77696 156.75 8.08335C158.622 6.21146 161.472 5.7264 163.858 6.87369L184.459 16.7808C186.623 17.8218 188 20.0113 188 22.4133V89.5872C188 91.9892 186.623 94.1787 184.459 95.2197L163.858 105.126Z" fill="#1F9CF0"/>
</g>
</g>
<defs>
<filter id="filter0_d_1406_81" x="79.6061" y="21.8288" width="116.727" height="92.2458" filterUnits="userSpaceOnUse" color-interpolation-filters="sRGB">
<feFlood flood-opacity="0" result="BackgroundImageFix"/>
<feColorMatrix in="SourceAlpha" type="matrix" values="0 0 0 0 0 0 0 0 0 0 0 0 0 0 0 0 0 0 127 0" result="hardAlpha"/>
<feOffset/>
<feGaussianBlur stdDeviation="4.16667"/>
<feColorMatrix type="matrix" values="0 0 0 0 0 0 0 0 0 0 0 0 0 0 0 0 0 0 0.25 0"/>
<feBlend mode="overlay" in2="BackgroundImageFix" result="effect1_dropShadow_1406_81"/>
<feBlend mode="normal" in="SourceGraphic" in2="effect1_dropShadow_1406_81" result="shape"/>
</filter>
<filter id="filter1_d_1406_81" x="148.417" y="-2.07553" width="47.9167" height="116.151" filterUnits="userSpaceOnUse" color-interpolation-filters="sRGB">
<feFlood flood-opacity="0" result="BackgroundImageFix"/>
<feColorMatrix in="SourceAlpha" type="matrix" values="0 0 0 0 0 0 0 0 0 0 0 0 0 0 0 0 0 0 127 0" result="hardAlpha"/>
<feOffset/>
<feGaussianBlur stdDeviation="4.16667"/>
<feColorMatrix type="matrix" values="0 0 0 0 0 0 0 0 0 0 0 0 0 0 0 0 0 0 0.25 0"/>
<feBlend mode="overlay" in2="BackgroundImageFix" result="effect1_dropShadow_1406_81"/>
<feBlend mode="normal" in="SourceGraphic" in2="effect1_dropShadow_1406_81" result="shape"/>
</filter>
<linearGradient id="paint0_linear_1406_81" x1="137.939" y1="6.25781" x2="137.939" y2="105.742" gradientUnits="userSpaceOnUse">
<stop stop-color="white"/>
<stop offset="1" stop-color="white" stop-opacity="0"/>
</linearGradient>
</defs>
</svg>
