<svg width="1008" height="623" viewBox="0 0 1008 623" fill="none" xmlns="http://www.w3.org/2000/svg">
<g filter="url(#filter0_f_6_26)">
<ellipse cx="504.5" cy="574" rx="452.5" ry="5" fill="black"/>
</g>
<path d="M99 28C99 13.0883 111.088 1 126 1H886C900.912 1 913 13.0883 913 28V550C913 551.657 911.657 553 910 553H102C100.343 553 99 551.657 99 550V28Z" fill="#1A202C" stroke="#4A5568" stroke-width="2"/>
<path d="M103 27C103 14.8497 112.85 5 125 5H887C899.15 5 909 14.8497 909 27V533H103V27Z" fill="black"/>
<rect x="124" y="33" width="761" height="478" fill="white"/>
<path d="M474.178 534.77C474.507 534.77 474.776 534.878 474.984 535.095C475.192 535.312 475.296 535.593 475.296 535.94V543.012C475.296 543.341 475.201 543.601 475.01 543.792C474.819 543.983 474.568 544.078 474.256 544.078C473.953 544.078 473.701 543.983 473.502 543.792C473.311 543.601 473.216 543.341 473.216 543.012V539.19L471.734 541.92C471.587 542.197 471.431 542.397 471.266 542.518C471.101 542.631 470.906 542.687 470.681 542.687C470.456 542.687 470.261 542.631 470.096 542.518C469.931 542.397 469.775 542.197 469.628 541.92L468.159 539.268V543.012C468.159 543.333 468.059 543.593 467.86 543.792C467.669 543.983 467.418 544.078 467.106 544.078C466.803 544.078 466.551 543.983 466.352 543.792C466.161 543.601 466.066 543.341 466.066 543.012V535.94C466.066 535.593 466.17 535.312 466.378 535.095C466.595 534.878 466.868 534.77 467.197 534.77C467.431 534.77 467.643 534.839 467.834 534.978C468.025 535.108 468.185 535.299 468.315 535.55L470.707 540.048L473.086 535.55C473.355 535.03 473.719 534.77 474.178 534.77ZM479.804 537.448C480.792 537.448 481.52 537.686 481.988 538.163C482.465 538.631 482.703 539.346 482.703 540.308V543.025C482.703 543.354 482.604 543.614 482.404 543.805C482.214 543.987 481.945 544.078 481.598 544.078C481.295 544.078 481.044 543.991 480.844 543.818C480.654 543.645 480.55 543.411 480.532 543.116C480.411 543.428 480.207 543.671 479.921 543.844C479.635 544.017 479.293 544.104 478.894 544.104C478.452 544.104 478.054 544.017 477.698 543.844C477.343 543.662 477.061 543.415 476.853 543.103C476.654 542.782 476.554 542.423 476.554 542.024C476.554 541.565 476.671 541.201 476.905 540.932C477.148 540.655 477.529 540.455 478.049 540.334C478.569 540.213 479.271 540.152 480.155 540.152H480.506V539.996C480.506 539.693 480.437 539.476 480.298 539.346C480.16 539.207 479.926 539.138 479.596 539.138C479.241 539.138 478.721 539.259 478.036 539.502C477.837 539.571 477.668 539.606 477.529 539.606C477.313 539.606 477.139 539.528 477.009 539.372C476.879 539.216 476.814 539.012 476.814 538.761C476.814 538.57 476.853 538.414 476.931 538.293C477.009 538.172 477.135 538.063 477.308 537.968C477.612 537.812 477.993 537.686 478.452 537.591C478.912 537.496 479.362 537.448 479.804 537.448ZM479.44 542.557C479.752 542.557 480.008 542.449 480.207 542.232C480.407 542.007 480.506 541.721 480.506 541.374V541.218H480.298C479.744 541.218 479.349 541.27 479.115 541.374C478.881 541.469 478.764 541.634 478.764 541.868C478.764 542.067 478.825 542.232 478.946 542.362C479.076 542.492 479.241 542.557 479.44 542.557ZM487.081 544.104C486.041 544.104 485.218 543.809 484.611 543.22C484.005 542.631 483.701 541.829 483.701 540.815C483.701 540.148 483.849 539.558 484.143 539.047C484.438 538.536 484.85 538.141 485.378 537.864C485.916 537.587 486.527 537.448 487.211 537.448C487.575 537.448 487.939 537.496 488.303 537.591C488.667 537.686 488.988 537.821 489.265 537.994C489.534 538.159 489.668 538.41 489.668 538.748C489.668 539.017 489.603 539.238 489.473 539.411C489.352 539.576 489.192 539.658 488.992 539.658C488.862 539.658 488.737 539.641 488.615 539.606C488.494 539.563 488.36 539.502 488.212 539.424C488.039 539.346 487.892 539.29 487.77 539.255C487.649 539.212 487.515 539.19 487.367 539.19C486.509 539.19 486.08 539.714 486.08 540.763C486.08 541.283 486.189 541.682 486.405 541.959C486.631 542.228 486.951 542.362 487.367 542.362C487.515 542.362 487.649 542.345 487.77 542.31C487.9 542.267 488.043 542.206 488.199 542.128C488.373 542.05 488.511 541.994 488.615 541.959C488.728 541.916 488.849 541.894 488.979 541.894C489.179 541.894 489.339 541.981 489.46 542.154C489.59 542.319 489.655 542.535 489.655 542.804C489.655 542.969 489.621 543.12 489.551 543.259C489.482 543.389 489.387 543.489 489.265 543.558C488.667 543.922 487.939 544.104 487.081 544.104ZM494.738 537.448C495.293 537.448 495.783 537.582 496.207 537.851C496.632 538.12 496.961 538.505 497.195 539.008C497.438 539.502 497.559 540.078 497.559 540.737C497.559 541.396 497.438 541.981 497.195 542.492C496.961 543.003 496.628 543.402 496.194 543.688C495.77 543.965 495.284 544.104 494.738 544.104C494.314 544.104 493.924 544.017 493.568 543.844C493.222 543.671 492.957 543.432 492.775 543.129C492.749 543.424 492.632 543.658 492.424 543.831C492.225 543.996 491.961 544.078 491.631 544.078C491.285 544.078 491.007 543.983 490.799 543.792C490.6 543.593 490.5 543.333 490.5 543.012V535.81C490.5 535.507 490.609 535.26 490.825 535.069C491.042 534.87 491.328 534.77 491.683 534.77C492.021 534.77 492.294 534.861 492.502 535.043C492.71 535.225 492.814 535.468 492.814 535.771V538.358C493.005 538.081 493.269 537.86 493.607 537.695C493.954 537.53 494.331 537.448 494.738 537.448ZM494.023 542.375C494.422 542.375 494.73 542.236 494.946 541.959C495.163 541.673 495.271 541.266 495.271 540.737C495.271 540.234 495.163 539.849 494.946 539.58C494.738 539.311 494.435 539.177 494.036 539.177C493.629 539.177 493.317 539.316 493.1 539.593C492.884 539.862 492.775 540.252 492.775 540.763C492.775 541.283 492.884 541.682 493.1 541.959C493.317 542.236 493.625 542.375 494.023 542.375ZM501.849 544.104C501.147 544.104 500.528 543.97 499.99 543.701C499.462 543.424 499.05 543.034 498.755 542.531C498.469 542.028 498.326 541.439 498.326 540.763C498.326 540.087 498.469 539.502 498.755 539.008C499.05 538.505 499.462 538.12 499.99 537.851C500.519 537.582 501.139 537.448 501.849 537.448C502.56 537.448 503.18 537.582 503.708 537.851C504.237 538.12 504.644 538.505 504.93 539.008C505.225 539.502 505.372 540.087 505.372 540.763C505.372 541.439 505.225 542.028 504.93 542.531C504.644 543.034 504.237 543.424 503.708 543.701C503.18 543.97 502.56 544.104 501.849 544.104ZM501.849 542.375C502.673 542.375 503.084 541.838 503.084 540.763C503.084 539.688 502.673 539.151 501.849 539.151C501.026 539.151 500.614 539.688 500.614 540.763C500.614 541.838 501.026 542.375 501.849 542.375ZM509.644 544.104C508.942 544.104 508.322 543.97 507.785 543.701C507.256 543.424 506.845 543.034 506.55 542.531C506.264 542.028 506.121 541.439 506.121 540.763C506.121 540.087 506.264 539.502 506.55 539.008C506.845 538.505 507.256 538.12 507.785 537.851C508.314 537.582 508.933 537.448 509.644 537.448C510.355 537.448 510.974 537.582 511.503 537.851C512.032 538.12 512.439 538.505 512.725 539.008C513.02 539.502 513.167 540.087 513.167 540.763C513.167 541.439 513.02 542.028 512.725 542.531C512.439 543.034 512.032 543.424 511.503 543.701C510.974 543.97 510.355 544.104 509.644 544.104ZM509.644 542.375C510.467 542.375 510.879 541.838 510.879 540.763C510.879 539.688 510.467 539.151 509.644 539.151C508.821 539.151 508.409 539.688 508.409 540.763C508.409 541.838 508.821 542.375 509.644 542.375ZM520.598 542.206C520.823 542.423 520.936 542.674 520.936 542.96C520.936 543.246 520.832 543.502 520.624 543.727C520.425 543.952 520.182 544.065 519.896 544.065C519.653 544.065 519.411 543.957 519.168 543.74L516.529 541.231V542.986C516.529 543.341 516.416 543.61 516.191 543.792C515.974 543.974 515.701 544.065 515.372 544.065C515.043 544.065 514.765 543.974 514.54 543.792C514.323 543.61 514.215 543.341 514.215 542.986V535.849C514.215 535.494 514.323 535.225 514.54 535.043C514.765 534.861 515.043 534.77 515.372 534.77C515.701 534.77 515.974 534.861 516.191 535.043C516.416 535.225 516.529 535.494 516.529 535.849V540.256L518.934 537.812C519.151 537.587 519.402 537.474 519.688 537.474C519.965 537.474 520.208 537.582 520.416 537.799C520.633 538.007 520.741 538.245 520.741 538.514C520.741 538.783 520.628 539.03 520.403 539.255L518.986 540.659L520.598 542.206ZM534.407 542.531C534.485 542.696 534.524 542.856 534.524 543.012C534.524 543.298 534.407 543.541 534.173 543.74C533.947 543.939 533.687 544.039 533.393 544.039C533.193 544.039 533.011 543.987 532.847 543.883C532.682 543.779 532.552 543.623 532.457 543.415L531.872 542.102H527.66L527.062 543.415C526.966 543.623 526.832 543.779 526.659 543.883C526.494 543.987 526.312 544.039 526.113 544.039C525.818 544.039 525.549 543.939 525.307 543.74C525.073 543.541 524.956 543.298 524.956 543.012C524.956 542.856 524.995 542.696 525.073 542.531L528.505 535.485C528.617 535.251 528.782 535.073 528.999 534.952C529.224 534.822 529.471 534.757 529.74 534.757C530 534.757 530.242 534.822 530.468 534.952C530.693 535.073 530.862 535.251 530.975 535.485L534.407 542.531ZM528.466 540.308H531.066L529.766 537.409L528.466 540.308ZM536.522 544.078C536.193 544.078 535.916 543.991 535.69 543.818C535.474 543.636 535.365 543.367 535.365 543.012V538.54C535.365 538.185 535.474 537.92 535.69 537.747C535.916 537.565 536.193 537.474 536.522 537.474C536.852 537.474 537.125 537.565 537.341 537.747C537.567 537.92 537.679 538.185 537.679 538.54V543.012C537.679 543.367 537.567 543.636 537.341 543.818C537.125 543.991 536.852 544.078 536.522 544.078ZM536.522 536.564C536.132 536.564 535.82 536.464 535.586 536.265C535.361 536.057 535.248 535.784 535.248 535.446C535.248 535.108 535.361 534.839 535.586 534.64C535.82 534.441 536.132 534.341 536.522 534.341C536.904 534.341 537.211 534.441 537.445 534.64C537.679 534.839 537.796 535.108 537.796 535.446C537.796 535.784 537.679 536.057 537.445 536.265C537.22 536.464 536.912 536.564 536.522 536.564ZM543.078 537.474C543.372 537.448 543.606 537.517 543.78 537.682C543.953 537.838 544.04 538.072 544.04 538.384C544.04 538.731 543.957 538.982 543.793 539.138C543.637 539.294 543.351 539.394 542.935 539.437L542.545 539.476C542.111 539.528 541.799 539.667 541.609 539.892C541.427 540.109 541.336 540.408 541.336 540.789V543.012C541.336 543.367 541.223 543.636 540.998 543.818C540.781 543.991 540.508 544.078 540.179 544.078C539.849 544.078 539.572 543.991 539.347 543.818C539.13 543.636 539.022 543.367 539.022 543.012V538.514C539.022 538.185 539.13 537.929 539.347 537.747C539.572 537.565 539.841 537.474 540.153 537.474C540.473 537.474 540.729 537.561 540.92 537.734C541.119 537.907 541.219 538.15 541.219 538.462V538.709C541.357 538.328 541.583 538.033 541.895 537.825C542.215 537.617 542.549 537.504 542.896 537.487L543.078 537.474Z" fill="#A0AEC0"/>
<path d="M0 552C0 550.895 0.895431 550 2 550H1006C1007.1 550 1008 550.895 1008 552V556H0V552Z" fill="#A3ACB1"/>
<path d="M0 552C0 550.895 0.895431 550 2 550H1006C1007.1 550 1008 550.895 1008 552V556H0V552Z" fill="url(#paint0_linear_6_26)"/>
<path d="M0 556H1008L987.646 560.105C961.613 565.355 935.123 568 908.566 568H97.9089C68.724 568 39.6267 564.806 11.1367 558.475L0 556Z" fill="#647279"/>
<path d="M0 556H1008L987.646 560.105C961.613 565.355 935.123 568 908.566 568H97.9089C68.724 568 39.6267 564.806 11.1367 558.475L0 556Z" fill="url(#paint1_linear_6_26)"/>
<path fill-rule="evenodd" clip-rule="evenodd" d="M430.033 550C430.547 553.351 428.052 556 436 556H573C580.948 556 578.453 553.351 578.967 550H430.033Z" fill="#96A1A8"/>
<path fill-rule="evenodd" clip-rule="evenodd" d="M430.033 550C430.547 553.351 428.052 556 436 556H573C580.948 556 578.453 553.351 578.967 550H430.033Z" fill="url(#paint2_linear_6_26)"/>
<defs>
<filter id="filter0_f_6_26" x="8" y="525" width="993" height="98" filterUnits="userSpaceOnUse" color-interpolation-filters="sRGB">
<feFlood flood-opacity="0" result="BackgroundImageFix"/>
<feBlend mode="normal" in="SourceGraphic" in2="BackgroundImageFix" result="shape"/>
<feGaussianBlur stdDeviation="22" result="effect1_foregroundBlur_6_26"/>
</filter>
<linearGradient id="paint0_linear_6_26" x1="-1.94452e-10" y1="553" x2="1008" y2="553" gradientUnits="userSpaceOnUse">
<stop stop-color="#0D1012"/>
<stop offset="0.0295345" stop-color="#CAD4DB"/>
<stop offset="0.0625" stop-color="#242729"/>
<stop offset="0.133609" stop-color="#A3ACB1"/>
<stop offset="0.865967" stop-color="#A3ACB1"/>
<stop offset="0.941937" stop-color="#242729"/>
<stop offset="0.971275" stop-color="#CAD4DB"/>
<stop offset="0.996436" stop-color="#0D1012"/>
</linearGradient>
<linearGradient id="paint1_linear_6_26" x1="504" y1="556" x2="504" y2="568" gradientUnits="userSpaceOnUse">
<stop stop-color="#7A7F83"/>
<stop offset="1" stop-color="#0B0B0E"/>
</linearGradient>
<linearGradient id="paint2_linear_6_26" x1="437.5" y1="553.643" x2="574.5" y2="553.643" gradientUnits="userSpaceOnUse">
<stop stop-color="#3C3C3C"/>
<stop offset="0.317518" stop-color="#3C3C3C" stop-opacity="0"/>
<stop offset="0.660584" stop-color="#3C3C3C" stop-opacity="0"/>
<stop offset="1" stop-color="#444444"/>
</linearGradient>
</defs>
</svg>
